<svg width="16" height="15" viewBox="0 0 16 15" fill="none" xmlns="http://www.w3.org/2000/svg">
<path d="M15.4089 3.04684C15.1687 2.4707 14.8224 1.9486 14.3894 1.50979C13.9561 1.06966 13.4452 0.719892 12.8845 0.479513C12.3031 0.229264 11.6795 0.101173 11.0499 0.102674C10.1666 0.102674 9.30487 0.353281 8.55597 0.826649C8.37681 0.939887 8.20661 1.06426 8.04536 1.19978C7.88412 1.06426 7.71392 0.939887 7.53476 0.826649C6.78586 0.353281 5.9241 0.102674 5.04083 0.102674C4.40481 0.102674 3.7885 0.228906 3.20622 0.479513C2.64366 0.720838 2.13663 1.06797 1.70127 1.50979C1.26769 1.94811 0.92134 2.47033 0.681841 3.04684C0.432807 3.64644 0.305603 4.28317 0.305603 4.93846C0.305603 5.55662 0.427432 6.20077 0.6693 6.85606C0.871752 7.40369 1.16199 7.97173 1.53286 8.54534C2.12051 9.45309 2.92852 10.3998 3.93182 11.3596C5.59444 12.9505 7.24093 14.0494 7.3108 14.094L7.73542 14.3761C7.92354 14.5005 8.1654 14.5005 8.35352 14.3761L8.77813 14.094C8.84801 14.0476 10.4927 12.9505 12.1571 11.3596C13.1604 10.3998 13.9684 9.45309 14.5561 8.54534C14.9269 7.97173 15.2189 7.40369 15.4196 6.85606C15.6615 6.20077 15.7833 5.55662 15.7833 4.93846C15.7851 4.28317 15.6579 3.64644 15.4089 3.04684Z" fill="#3B3B3B"/>
</svg>
