<svg width="16" height="15" viewBox="0 0 16 15" fill="none" xmlns="http://www.w3.org/2000/svg">
<path d="M15.4089 3.04684C15.1687 2.4707 14.8224 1.9486 14.3894 1.50979C13.9561 1.06966 13.4452 0.719892 12.8845 0.479513C12.3031 0.229264 11.6795 0.101173 11.0499 0.102674C10.1666 0.102674 9.30484 0.353281 8.55594 0.826649C8.37678 0.939887 8.20658 1.06426 8.04533 1.19978C7.88409 1.06426 7.71389 0.939887 7.53473 0.826649C6.78583 0.353281 5.92407 0.102674 5.0408 0.102674C4.40478 0.102674 3.78847 0.228906 3.20619 0.479513C2.64363 0.720838 2.1366 1.06797 1.70124 1.50979C1.26766 1.94811 0.92131 2.47033 0.681811 3.04684C0.432777 3.64644 0.305573 4.28317 0.305573 4.93846C0.305573 5.55662 0.427402 6.20077 0.66927 6.85606C0.871722 7.40369 1.16196 7.97173 1.53283 8.54534C2.12048 9.45309 2.92849 10.3998 3.93179 11.3596C5.59441 12.9505 7.2409 14.0494 7.31077 14.094L7.73539 14.3761C7.92351 14.5005 8.16537 14.5005 8.35349 14.3761L8.7781 14.094C8.84798 14.0476 10.4927 12.9505 12.1571 11.3596C13.1604 10.3998 13.9684 9.45309 14.5561 8.54534C14.9269 7.97173 15.2189 7.40369 15.4196 6.85606C15.6615 6.20077 15.7833 5.55662 15.7833 4.93846C15.7851 4.28317 15.6579 3.64644 15.4089 3.04684ZM8.04533 12.9078C8.04533 12.9078 1.6672 8.67343 1.6672 4.93846C1.6672 3.04684 3.17753 1.5135 5.0408 1.5135C6.35047 1.5135 7.48635 2.27089 8.04533 3.37727C8.60432 2.27089 9.7402 1.5135 11.0499 1.5135C12.9131 1.5135 14.4235 3.04684 14.4235 4.93846C14.4235 8.67343 8.04533 12.9078 8.04533 12.9078Z" fill="#3B3B3B"/>
</svg>
